<?xml version="1.0" standalone="no"?>
<!DOCTYPE svg PUBLIC "-//W3C//DTD SVG 20010904//EN"
 "http://www.w3.org/TR/2001/REC-SVG-20010904/DTD/svg10.dtd">
<svg version="1.0" xmlns="http://www.w3.org/2000/svg"
 width="500.000000pt" height="500.000000pt" viewBox="0 0 500.000000 500.000000"
 preserveAspectRatio="xMidYMid meet">

<g transform="translate(0.000000,500.000000) scale(0.100000,-0.100000)"
fill="#000000" stroke="none">
<path d="M4224 4766 c-105 -34 -183 -120 -211 -231 -35 -141 34 -288 165 -352
49 -24 69 -28 142 -28 70 0 93 5 130 24 61 32 116 86 148 146 23 43 27 62 27
140 0 78 -4 97 -27 141 -32 61 -94 119 -157 147 -57 25 -162 32 -217 13z"/>
<path d="M1835 4336 c-228 -59 -418 -142 -606 -264 -474 -309 -797 -802 -895
-1367 -25 -140 -29 -430 -9 -585 57 -454 258 -864 580 -1185 607 -606 1515
-765 2295 -403 201 94 375 215 544 378 376 364 580 807 616 1340 6 89 7 162 1
190 -9 44 -9 45 -11 10 -1 -19 -4 -30 -6 -23 -4 8 -33 -6 -82 -38 -42 -28
-107 -65 -144 -82 -49 -23 -68 -38 -69 -52 -1 -17 -2 -17 -6 -2 -11 43 -20 8
-26 -101 -30 -606 -417 -1181 -981 -1458 -403 -198 -884 -233 -1308 -94 -601
197 -1052 701 -1177 1315 -52 251 -50 489 5 734 148 659 661 1178 1319 1335
37 9 49 15 33 15 -25 1 -27 3 -21 34 8 46 73 247 90 281 12 22 12 30 2 36 -8
6 -6 9 7 13 18 4 18 5 -1 5 -11 1 -78 -14 -150 -32z m42 -342 c-3 -3 -12 -4
-19 -1 -8 3 -5 6 6 6 11 1 17 -2 13 -5z"/>
<path d="M1852 3287 c-23 -24 -39 -47 -35 -52 5 -4 3 -5 -3 -2 -17 10 -176
-160 -280 -299 -252 -335 -386 -673 -401 -1010 -7 -165 6 -269 47 -392 98
-287 318 -475 616 -527 345 -60 775 54 1244 330 132 78 160 101 78 66 -24 -10
-100 -35 -168 -55 -346 -100 -630 -96 -849 10 -88 43 -200 146 -250 228 -132
220 -141 533 -25 874 40 120 114 282 169 372 20 33 33 65 29 71 -4 8 -3 9 4 5
6 -4 16 4 23 16 12 22 11 22 -6 8 -17 -14 -18 -13 -8 4 9 16 2 37 -34 110 -24
50 -58 135 -74 189 -17 53 -32 97 -33 97 -1 0 -21 -19 -44 -43z m47 20 c-2 -1
-13 -9 -24 -17 -19 -14 -19 -14 -6 3 7 9 18 17 24 17 6 0 8 -1 6 -3z"/>
<path d="M2419 2469 c-116 -229 -154 -494 -95 -676 58 -180 190 -293 404 -345
70 -17 117 -21 240 -21 159 1 220 15 118 27 -154 18 -309 117 -387 246 -76
125 -83 317 -18 478 16 41 26 79 23 84 -5 7 -2 8 6 3 10 -6 12 -4 7 9 -4 10
-3 15 3 11 5 -3 14 5 21 17 9 19 9 21 -2 11 -10 -10 -24 -6 -68 19 -110 62
-232 151 -227 164 11 30 -5 12 -25 -27z m12 -16 c-12 -20 -14 -14 -5 12 4 9 9
14 11 11 3 -2 0 -13 -6 -23z"/>
</g>
</svg>
